<?xml version="1.0" standalone="no"?>
<!DOCTYPE svg PUBLIC "-//W3C//DTD SVG 20010904//EN"
 "http://www.w3.org/TR/2001/REC-SVG-20010904/DTD/svg10.dtd">
<svg version="1.0" xmlns="http://www.w3.org/2000/svg"
 width="1040.000000pt" height="386.000000pt" viewBox="0 0 1040.000000 386.000000"
 preserveAspectRatio="xMidYMid meet">

<g transform="translate(0.000000,386.000000) scale(0.100000,-0.100000)"
fill="#000000" stroke="none">
<path d="M425 3551 c-22 -10 -54 -34 -72 -52 -68 -72 -63 44 -63 -1572 l0
-1463 26 -53 c18 -35 40 -61 68 -79 22 -15 49 -37 59 -49 20 -25 72 -53 99
-53 10 0 18 -4 18 -10 0 -5 11 -10 25 -10 14 0 25 -4 25 -8 0 -12 78 -30 134
-32 27 0 59 -6 70 -12 24 -13 67 -17 219 -19 61 0 107 -5 107 -10 0 -6 4 -8 9
-4 5 3 12 1 16 -5 3 -5 12 -10 18 -10 7 0 6 4 -3 10 -11 7 0 10 38 11 28 1 60
2 70 2 9 1 16 -5 14 -11 -2 -10 15 -12 63 -10 36 1 65 7 65 13 0 5 5 3 10 -5
5 -8 10 -10 10 -3 0 9 21 11 40 2 10 -4 720 -4 720 1 0 3 19 6 43 7 23 1 68 5
100 8 39 4 57 2 52 -5 -3 -5 0 -8 7 -5 12 4 76 9 273 21 33 2 139 6 235 9 425
12 540 16 620 20 47 2 245 6 440 9 429 6 468 9 240 16 -122 4 -24 7 320 9 272
2 479 7 460 11 -19 4 125 9 320 10 195 1 339 6 320 10 -19 4 132 8 335 10 204
1 388 3 410 5 22 1 218 6 435 10 217 4 415 9 440 12 25 2 635 6 1355 9 870 4
1321 9 1344 16 45 14 110 74 132 123 18 38 19 109 19 1494 0 1117 -3 1463 -12
1495 -16 54 -90 128 -144 144 -32 9 -1072 12 -4765 12 -4580 0 -4725 -1 -4764
-19z m3905 -386 c0 -8 -7 -15 -15 -15 -8 0 -15 7 -15 15 0 8 7 15 15 15 8 0
15 -7 15 -15z m720 5 c0 -5 -7 -10 -15 -10 -8 0 -15 -7 -15 -15 0 -8 7 -15 15
-15 8 0 15 -4 15 -10 0 -5 -7 -10 -15 -10 -12 0 -15 -13 -15 -55 0 -42 -3 -55
-15 -55 -11 0 -15 13 -15 54 0 34 -5 57 -12 60 -10 5 -10 7 0 12 6 3 12 14 12
23 0 10 3 21 7 24 10 11 53 8 53 -3z m-200 -25 c0 -8 7 -15 15 -15 8 0 15 -4
15 -10 0 -5 -7 -10 -15 -10 -11 0 -15 -11 -15 -40 0 -27 5 -43 15 -46 23 -9
18 -26 -7 -22 -20 3 -23 10 -26 53 -2 27 -9 53 -15 58 -9 7 -9 10 1 14 6 2 12
11 12 19 0 8 5 14 10 14 6 0 10 -7 10 -15z m-520 -80 c0 -51 -3 -65 -15 -65
-12 0 -15 14 -15 65 0 51 3 65 15 65 12 0 15 -14 15 -65z m140 46 c16 -31 13
-111 -5 -111 -11 0 -15 12 -15 50 0 36 -4 52 -15 56 -26 10 -45 -16 -45 -62 0
-24 -4 -44 -10 -44 -6 0 -10 28 -10 63 l0 64 45 1 c35 2 46 -2 55 -17z m155
-3 c19 -29 19 -58 -1 -87 -14 -19 -23 -22 -50 -18 -32 5 -34 4 -34 -24 0 -16
-4 -29 -10 -29 -6 0 -10 36 -10 88 l0 88 45 2 c36 1 47 -3 60 -20z m75 -27 c0
-52 8 -65 34 -55 12 4 16 20 16 55 0 37 4 49 15 49 12 0 15 -14 15 -64 l0 -64
-42 0 c-57 -1 -68 11 -68 74 0 41 4 54 15 54 11 0 15 -12 15 -49z m450 41 c0
-4 -10 -12 -22 -17 -19 -8 -24 -19 -26 -57 -5 -71 -22 -58 -22 15 l0 64 35 1
c19 1 35 -2 35 -6z m124 -14 c34 -48 7 -108 -48 -108 -41 0 -60 21 -60 65 0
44 19 65 60 65 23 0 38 -7 48 -22z m214 10 c18 -16 16 -118 -3 -118 -11 0 -15
12 -15 50 0 37 -4 52 -16 57 -22 8 -34 -14 -34 -64 0 -24 -4 -43 -10 -43 -5 0
-10 19 -10 43 0 50 -12 72 -34 64 -12 -5 -16 -20 -16 -57 0 -38 -4 -50 -15
-50 -12 0 -15 14 -15 64 l0 64 78 0 c42 0 83 -5 90 -10z m142 -32 c0 -51 20
-76 45 -56 9 8 15 30 15 56 0 24 5 44 10 44 6 0 10 -28 10 -63 l0 -63 -45 -2
c-41 -1 -47 1 -55 24 -16 41 -13 104 5 104 11 0 15 -12 15 -44z m211 28 c11
-14 9 -15 -24 -9 -48 9 -52 -18 -4 -31 24 -7 33 -16 35 -36 3 -22 -2 -29 -22
-34 -35 -8 -76 3 -76 21 0 17 16 20 25 5 8 -13 42 -13 50 0 3 5 -12 17 -34 26
-42 17 -52 39 -29 62 17 17 63 15 79 -4z m143 0 c9 -8 16 -24 16 -35 0 -16 -7
-19 -45 -19 -34 0 -45 -4 -45 -15 0 -22 29 -31 52 -16 24 15 43 5 27 -15 -19
-23 -75 -18 -93 8 -33 46 -7 108 44 108 16 0 36 -7 44 -16z m116 6 c0 -4 -9
-10 -20 -13 -17 -4 -20 -14 -20 -56 0 -39 -4 -51 -15 -51 -12 0 -15 14 -15 64
l0 64 35 0 c19 0 35 -4 35 -8z m-790 -661 c0 -6 -13 -24 -30 -39 -27 -25 -30
-34 -30 -90 0 -55 3 -65 30 -92 17 -16 30 -36 30 -44 0 -18 -4 -18 -40 1 -43
22 -60 63 -60 141 0 62 2 68 34 100 33 33 66 45 66 23z m1558 -5 c48 -33 67
-127 41 -202 -9 -27 -61 -72 -83 -72 -16 0 -3 33 20 54 48 41 43 170 -7 197
-21 11 -26 39 -6 39 7 0 23 -7 35 -16z m-3760 -21 c-2 -10 -12 -18 -23 -18
-11 0 -21 8 -23 18 -3 13 3 17 23 17 20 0 26 -4 23 -17z m3437 -3 c0 -18 -33
-26 -47 -12 -6 6 -7 15 -3 22 10 16 50 8 50 -10z m-5205 -99 l0 -109 -53 -1
c-28 0 -58 4 -66 8 -8 6 -16 32 -19 64 -4 47 -1 58 18 77 17 17 29 21 51 16
27 -5 29 -3 29 24 0 23 4 30 20 30 19 0 20 -7 20 -109z m1170 79 c0 -27 2 -29
29 -24 44 9 71 -23 71 -85 0 -66 -16 -80 -85 -80 l-55 1 0 109 c0 102 1 109
20 109 16 0 20 -7 20 -30z m460 16 c0 -9 -12 -16 -27 -18 -17 -2 -29 -10 -31
-20 -3 -14 3 -18 27 -18 21 0 31 -5 31 -15 0 -10 -10 -15 -30 -15 l-30 0 0
-60 c0 -53 -2 -60 -20 -60 -18 0 -20 7 -20 60 0 57 -1 60 -25 60 -16 0 -25 6
-25 15 0 9 9 15 25 15 20 0 25 5 25 25 0 29 23 44 68 45 21 0 32 -5 32 -14z
m655 -51 l24 -60 0 63 c1 55 3 62 21 62 19 0 20 -7 20 -110 0 -110 0 -110 -24
-110 -21 0 -28 9 -49 73 l-25 72 -1 -72 c-1 -66 -3 -73 -21 -73 -19 0 -20 7
-20 111 l0 110 26 -3 c22 -2 30 -13 49 -63z m595 45 c25 -25 26 -72 0 -95 -19
-17 -19 -18 0 -56 25 -47 25 -49 0 -49 -14 0 -27 14 -42 45 -12 25 -26 45 -30
45 -4 0 -8 -20 -8 -45 0 -38 -3 -45 -20 -45 -19 0 -20 7 -20 110 l0 110 50 0
c37 0 55 -5 70 -20z m560 -89 l0 -109 -57 -1 c-31 0 -63 5 -70 11 -8 6 -13 33
-13 68 0 69 21 96 70 87 28 -6 30 -5 30 23 0 23 4 30 20 30 19 0 20 -7 20
-109z m1241 99 c25 -14 25 -50 0 -50 -10 0 -21 7 -25 15 -7 19 -42 20 -49 2
-8 -21 9 -40 45 -53 18 -6 40 -23 48 -37 13 -24 13 -30 0 -54 -28 -51 -140
-40 -140 13 0 19 36 18 44 -1 7 -20 52 -19 60 1 8 22 -9 41 -45 49 -31 7 -59
38 -59 67 0 45 72 74 121 48z m379 -100 l0 -110 -55 0 c-69 0 -90 25 -82 97 6
54 28 76 70 70 24 -3 27 0 27 25 0 21 5 28 20 28 19 0 20 -7 20 -110z m-240
81 c0 -15 8 -21 32 -23 22 -2 34 -9 36 -20 3 -15 -4 -18 -33 -18 l-36 0 3 -47
c3 -44 5 -48 31 -51 43 -5 34 -32 -11 -32 -51 0 -62 14 -62 77 0 46 -3 53 -20
53 -13 0 -20 7 -20 20 0 13 7 20 20 20 13 0 20 7 20 20 0 13 7 20 20 20 13 0
20 -7 20 -19z m-5377 -34 c9 -7 19 -24 23 -39 5 -24 3 -28 -15 -28 -12 0 -21
4 -21 8 0 20 -27 43 -43 36 -14 -5 -17 -19 -17 -70 0 -57 -2 -64 -20 -64 -18
0 -20 7 -20 83 l0 84 49 1 c27 0 56 -5 64 -11z m177 -7 c11 -11 20 -33 20 -50
0 -29 -1 -30 -51 -30 -43 0 -50 -3 -47 -17 3 -15 13 -17 51 -15 26 2 47 1 47
-2 0 -16 -37 -36 -67 -36 -53 0 -73 23 -73 82 0 57 24 88 70 88 17 0 39 -9 50
-20z m178 4 c19 -13 22 -24 22 -84 l0 -68 -57 -1 c-65 0 -83 10 -83 50 0 33
23 49 69 49 21 0 31 5 31 15 0 20 -28 31 -43 16 -14 -14 -47 -14 -47 0 0 35
70 50 108 23z m360 0 c15 -11 22 -25 22 -50 l0 -34 -51 0 c-43 0 -50 -3 -47
-17 3 -15 13 -18 51 -16 26 2 47 -1 47 -5 0 -19 -27 -32 -66 -32 -53 0 -74 25
-74 87 0 71 62 106 118 67z m195 -2 c24 -22 23 -62 -3 -62 -11 0 -20 6 -20 14
0 7 -7 19 -15 26 -27 23 -45 -5 -45 -71 0 -52 -2 -59 -20 -59 -18 0 -20 7 -20
84 l0 84 53 0 c33 0 58 -6 70 -16z m325 -10 c3 -18 -1 -22 -22 -22 -31 0 -42
16 -25 36 17 21 43 13 47 -14z m674 -39 c3 -57 6 -68 22 -71 27 -5 36 15 36
81 0 50 2 57 20 57 18 0 20 -7 20 -67 0 -79 -16 -103 -68 -103 -57 0 -72 22
-72 102 0 61 2 68 20 68 17 0 19 -8 22 -67z m416 -5 c3 -65 4 -68 27 -68 16 0
25 -6 25 -15 0 -12 -15 -15 -75 -15 -60 0 -75 3 -75 15 0 10 10 15 30 15 29 0
30 1 30 50 0 47 -2 50 -25 50 -19 0 -25 5 -25 21 0 18 5 20 43 17 l42 -3 3
-67z m202 52 c14 -14 20 -33 20 -67 0 -58 -20 -83 -68 -83 -52 0 -72 23 -72
82 0 57 24 88 70 88 17 0 39 -9 50 -20z m538 4 c15 -11 22 -25 22 -50 l0 -34
-51 0 c-43 0 -50 -3 -47 -17 3 -15 13 -18 51 -16 26 2 47 -1 47 -5 0 -19 -27
-32 -66 -32 -53 0 -74 25 -74 87 0 71 62 106 118 67z m90 -27 c4 -41 22 -52
22 -13 0 34 10 56 25 56 16 0 25 -22 25 -63 0 -24 3 -28 10 -17 5 8 10 28 10
43 0 25 23 47 36 35 2 -3 -1 -41 -8 -84 -12 -68 -16 -79 -35 -82 -19 -3 -22 4
-30 50 l-9 53 -8 -52 c-7 -46 -11 -53 -31 -53 -19 0 -23 7 -28 43 -3 23 -9 62
-13 86 -6 39 -5 43 12 39 14 -2 20 -13 22 -41z m450 27 c15 -11 22 -25 22 -50
l0 -34 -50 0 c-51 0 -57 -4 -41 -29 6 -9 20 -11 50 -6 41 7 51 -1 29 -23 -17
-17 -93 -15 -108 3 -7 8 -15 34 -17 58 -9 77 55 123 115 81z m192 -4 c16 -16
20 -33 20 -84 l0 -65 -67 2 c-65 2 -68 3 -78 31 -8 24 -6 31 14 47 13 10 38
19 57 19 36 0 43 10 21 29 -10 8 -22 7 -45 -1 -40 -15 -54 -2 -23 23 30 25 76
24 101 -1z m360 0 c11 -11 20 -33 20 -50 0 -29 -1 -30 -51 -30 -43 0 -50 -3
-47 -17 3 -15 13 -17 53 -15 l49 3 -18 -20 c-23 -26 -87 -28 -110 -5 -11 10
-16 34 -16 69 0 44 4 57 22 69 31 22 74 20 98 -4z m183 7 c9 -7 19 -24 23 -39
5 -24 3 -28 -15 -28 -12 0 -21 4 -21 8 0 20 -27 43 -43 36 -14 -5 -17 -19 -17
-70 0 -57 -2 -64 -20 -64 -18 0 -20 7 -20 83 l0 84 49 1 c27 0 56 -5 64 -11z
m357 -7 c14 -14 20 -33 20 -67 0 -58 -20 -83 -68 -83 -52 0 -72 23 -72 82 0
57 24 88 70 88 17 0 39 -9 50 -20z m181 10 c23 -13 25 -40 4 -40 -8 0 -24 6
-35 12 -15 9 -22 10 -31 1 -16 -16 -3 -33 25 -33 12 0 30 -6 40 -13 22 -16 25
-65 5 -78 -23 -15 -96 -10 -113 7 -23 23 -21 25 32 22 71 -4 70 17 -3 39 -23
6 -31 15 -33 38 -6 47 56 73 109 45z m879 -60 c0 -68 1 -70 25 -70 16 0 25 -6
25 -15 0 -12 -15 -15 -75 -15 -60 0 -75 3 -75 15 0 10 10 15 30 15 29 0 30 1
30 50 0 47 -2 50 -25 50 -14 0 -25 6 -25 13 0 21 11 27 52 27 l38 0 0 -70z
m211 49 c15 -15 19 -33 19 -84 0 -58 -2 -65 -20 -65 -18 0 -20 7 -20 59 0 40
-5 63 -15 71 -27 23 -45 -5 -45 -71 0 -52 -2 -59 -20 -59 -18 0 -20 7 -20 84
l0 84 51 0 c37 1 55 -4 70 -19z m-4501 -14 c0 -12 -14 -15 -70 -15 -56 0 -70
3 -70 15 0 12 14 15 70 15 56 0 70 -3 70 -15z m0 -70 c0 -12 -14 -15 -70 -15
-56 0 -70 3 -70 15 0 12 14 15 70 15 56 0 70 -3 70 -15z m-232 -43 c3 -18 -1
-22 -22 -22 -31 0 -42 16 -25 36 17 21 43 13 47 -14z m1450 1 c3 -19 -1 -23
-22 -23 -28 0 -41 14 -32 36 9 24 50 13 54 -13z m2350 0 c3 -19 -1 -23 -22
-23 -28 0 -41 14 -32 36 9 24 50 13 54 -13z m-3218 -244 c0 -6 -13 -24 -30
-39 -27 -26 -30 -34 -30 -92 0 -51 4 -69 20 -86 12 -12 25 -22 30 -22 6 0 10
-9 10 -20 0 -24 -3 -24 -40 -5 -48 25 -60 52 -60 133 0 71 1 75 34 108 33 33
66 45 66 23z m3538 -3 c40 -21 57 -60 57 -132 0 -68 -20 -108 -66 -131 -20
-11 -25 -10 -28 4 -2 9 6 24 18 32 48 36 51 154 5 190 -13 10 -24 26 -24 35 0
20 4 20 38 2z m-4293 -26 c0 -18 -33 -26 -47 -12 -6 6 -7 15 -3 22 10 16 50 8
50 -10z m3070 0 c0 -22 -39 -19 -43 3 -3 15 1 18 20 15 12 -2 23 -10 23 -18z
m-4115 -4 c0 -9 -12 -16 -27 -18 -17 -2 -29 -10 -31 -20 -3 -14 3 -18 27 -18
21 0 31 -5 31 -15 0 -10 -10 -15 -30 -15 l-30 0 0 -60 c0 -53 -2 -60 -20 -60
-18 0 -20 7 -20 60 0 57 -1 60 -25 60 -16 0 -25 6 -25 15 0 9 9 15 25 15 20 0
25 5 25 25 0 29 23 44 68 45 21 0 32 -5 32 -14z m708 -2 c15 -10 22 -25 22
-49 0 -42 -21 -63 -71 -71 -38 -6 -39 -8 -39 -45 0 -32 -3 -39 -20 -39 -19 0
-20 7 -20 110 l0 110 53 0 c31 0 61 -6 75 -16z m922 2 c0 -9 -12 -16 -27 -18
-17 -2 -29 -10 -31 -20 -3 -14 3 -18 27 -18 21 0 31 -5 31 -15 0 -10 -10 -15
-30 -15 l-30 0 0 -60 c0 -53 -2 -60 -20 -60 -16 0 -19 8 -22 58 -3 50 -6 57
-25 60 -32 5 -30 32 2 32 19 0 25 5 25 23 0 33 19 47 62 47 26 0 38 -4 38 -14z
m280 -15 c0 -39 -9 -61 -26 -61 -10 0 -14 13 -14 45 0 38 3 45 20 45 15 0 20
-7 20 -29z m60 -17 c0 -38 -3 -45 -17 -42 -13 2 -19 15 -21 46 -3 37 -1 42 17
42 18 0 21 -6 21 -46z m200 31 c0 -11 -12 -15 -50 -15 -49 0 -50 -1 -50 -30 0
-29 2 -30 45 -30 33 0 45 -4 45 -15 0 -11 -12 -15 -45 -15 -45 0 -45 0 -45
-35 l0 -35 50 0 c38 0 50 -4 50 -15 0 -12 -14 -15 -65 -15 l-65 0 0 110 0 110
65 0 c51 0 65 -3 65 -15z m2990 -31 c0 -38 -3 -45 -17 -42 -13 2 -19 15 -21
46 -3 37 -1 42 17 42 18 0 21 -6 21 -46z m60 1 c0 -33 -4 -45 -15 -45 -11 0
-15 12 -15 45 0 33 4 45 15 45 11 0 15 -12 15 -45z m-4920 15 c0 -16 7 -20 30
-20 23 0 30 -4 30 -20 0 -16 -7 -20 -30 -20 -29 0 -30 -1 -30 -50 0 -49 1 -50
30 -50 20 0 30 -5 30 -15 0 -19 -70 -21 -88 -3 -7 7 -12 36 -12 65 0 50 -1 53
-26 53 -33 0 -30 33 4 38 14 2 22 10 22 23 0 12 7 19 20 19 13 0 20 -7 20 -20z
m1080 0 c0 -16 7 -20 35 -20 28 0 35 -4 35 -20 0 -16 -7 -20 -36 -20 l-35 0 3
-47 c3 -46 4 -48 36 -51 52 -5 42 -32 -13 -32 -53 0 -65 16 -65 84 0 39 -3 46
-20 46 -13 0 -20 7 -20 20 0 13 7 20 20 20 13 0 20 7 20 20 0 13 7 20 20 20
13 0 20 -7 20 -20z m1090 0 c0 -16 7 -20 30 -20 23 0 30 -4 30 -20 0 -16 -7
-20 -30 -20 -29 0 -30 -1 -30 -50 0 -49 1 -50 30 -50 20 0 30 -5 30 -15 0 -19
-70 -21 -88 -3 -7 7 -12 36 -12 65 0 46 -3 53 -20 53 -13 0 -20 7 -20 20 0 13
7 20 20 20 13 0 20 7 20 20 0 13 7 20 20 20 13 0 20 -7 20 -20z m1260 1 c0
-15 8 -21 32 -23 22 -2 34 -9 36 -20 3 -15 -4 -18 -33 -18 l-36 0 3 -47 c3
-44 5 -48 31 -51 40 -5 35 -32 -6 -32 -46 0 -57 15 -57 77 0 50 -1 53 -26 53
-33 0 -30 33 4 38 14 2 22 10 22 23 0 10 7 19 15 19 8 0 15 -9 15 -19z m-3549
-48 c5 -13 9 -51 9 -84 0 -52 -2 -59 -20 -59 -18 0 -20 7 -20 70 0 40 -4 70
-10 70 -6 0 -10 -30 -10 -70 0 -63 -2 -70 -20 -70 -18 0 -20 7 -20 70 0 40 -4
70 -10 70 -6 0 -10 -30 -10 -70 0 -63 -2 -70 -20 -70 -18 0 -20 7 -20 78 0 43
2 81 5 84 3 3 35 5 71 5 60 0 66 -2 75 -24z m712 9 c24 -22 23 -62 -3 -62 -11
0 -20 6 -20 14 0 7 -7 19 -15 26 -27 23 -45 -5 -45 -71 0 -52 -2 -59 -20 -59
-18 0 -20 7 -20 84 l0 84 53 0 c33 0 58 -6 70 -16z m147 -52 c0 -68 1 -70 25
-70 16 0 25 -6 25 -15 0 -12 -15 -15 -75 -15 -60 0 -75 3 -75 15 0 10 10 15
30 15 29 0 30 1 30 50 0 47 -2 50 -25 50 -14 0 -25 6 -25 13 0 21 11 27 52 27
l38 0 0 -70z m205 54 c10 -11 15 -36 15 -85 0 -62 -2 -69 -20 -69 -18 0 -20 7
-20 64 0 63 -8 79 -37 69 -9 -3 -13 -26 -13 -69 0 -57 -2 -64 -20 -64 -18 0
-20 7 -20 83 l0 84 50 1 c32 0 55 -4 65 -14z m1000 6 c5 -8 11 -7 21 1 21 17
63 2 74 -27 6 -14 10 -50 10 -80 0 -47 -2 -54 -20 -54 -18 0 -20 7 -20 64 0
48 -4 65 -15 70 -34 13 -45 -4 -45 -70 0 -57 -2 -64 -20 -64 -18 0 -20 7 -20
78 0 43 3 82 7 85 9 10 21 9 28 -3z m445 -10 c11 -11 20 -33 20 -50 0 -29 -1
-30 -51 -30 -43 0 -50 -3 -47 -17 3 -15 13 -18 51 -16 52 3 54 2 31 -21 -21
-21 -88 -21 -105 1 -8 9 -14 38 -14 65 0 40 5 53 24 69 30 25 66 24 91 -1z
m196 -5 c21 -28 18 -55 -6 -55 -13 0 -20 7 -20 19 0 20 -32 37 -50 26 -5 -3
-10 -35 -10 -71 0 -57 -2 -64 -20 -64 -18 0 -20 7 -20 78 0 43 2 81 5 84 3 2
28 4 56 4 38 -1 54 -6 65 -21z m342 9 c19 -13 22 -24 22 -83 l0 -67 -57 -2
c-63 -2 -83 9 -83 44 0 28 35 54 72 54 19 0 28 5 28 15 0 20 -28 31 -43 16
-13 -13 -47 -15 -47 -2 0 15 42 41 65 41 11 0 31 -7 43 -16z m363 6 c20 -11
27 -40 9 -40 -6 0 -19 5 -29 12 -21 13 -55 4 -49 -14 2 -6 21 -16 43 -22 48
-14 63 -36 47 -70 -10 -23 -18 -26 -60 -26 -45 0 -72 12 -72 32 0 5 23 6 51 2
46 -6 51 -5 47 12 -2 11 -15 21 -35 25 -62 12 -79 43 -43 79 22 22 60 26 91
10z m289 -2 c0 -9 3 -9 12 0 29 29 88 -1 88 -45 0 -31 -24 -30 -38 2 -6 14
-18 25 -25 25 -26 0 -37 -25 -37 -82 0 -45 -3 -58 -15 -58 -12 0 -15 16 -15
85 0 69 3 85 15 85 8 0 15 -5 15 -12z m230 -58 l0 -70 30 0 c20 0 30 -5 30
-15 0 -12 -15 -15 -75 -15 -60 0 -75 3 -75 15 0 10 10 15 30 15 29 0 30 1 30
50 0 47 -2 50 -25 50 -18 0 -25 5 -25 20 0 17 7 20 40 20 l40 0 0 -70z m126
59 c4 -8 9 -8 17 0 17 17 45 13 67 -9 16 -16 20 -33 20 -85 0 -58 -2 -65 -20
-65 -18 0 -20 7 -20 64 0 48 -4 65 -15 70 -34 13 -45 -4 -45 -70 0 -57 -2 -64
-20 -64 -18 0 -20 7 -20 78 0 43 3 82 7 85 9 10 21 8 29 -4z m229 1 c5 -8 11
-7 20 0 8 7 19 9 25 5 11 -7 14 -145 4 -182 -11 -39 -109 -60 -109 -23 0 10
12 16 38 18 28 2 37 8 37 22 0 16 -5 18 -34 13 -27 -4 -36 -1 -50 18 -23 33
-21 94 4 119 22 22 55 26 65 10z m370 -15 c0 -23 -34 -33 -46 -14 -10 17 9 41
30 37 9 -2 16 -12 16 -23z m-4337 -122 c3 -19 -1 -23 -22 -23 -28 0 -41 14
-32 36 9 24 50 13 54 -13z m4342 -4 c0 -13 -7 -19 -24 -19 -32 0 -44 20 -22
36 23 16 46 7 46 -17z m210 -224 c0 -8 -8 -19 -19 -24 -50 -27 -55 -156 -7
-197 23 -21 36 -54 20 -54 -20 0 -66 39 -79 66 -19 41 -19 127 0 164 25 47 85
80 85 45z m321 -120 c27 -71 49 -133 49 -137 0 -5 -8 -8 -18 -8 -12 0 -24 20
-43 73 -15 39 -38 103 -53 140 -25 67 -25 68 -5 65 17 -2 31 -29 70 -133z
m517 119 c48 -33 67 -127 41 -202 -9 -27 -61 -72 -83 -72 -16 0 -3 33 20 54
48 41 43 170 -7 197 -21 11 -26 39 -6 39 7 0 23 -7 35 -16z m-1410 -21 c-2
-10 -12 -18 -23 -18 -11 0 -21 8 -23 18 -3 13 3 17 23 17 20 0 26 -4 23 -17z
m-1948 -102 l0 -109 -60 -1 c-70 -1 -80 10 -80 87 0 61 24 88 70 79 28 -6 30
-5 30 23 0 23 4 30 20 30 19 0 20 -7 20 -109z m710 89 c25 -25 26 -72 0 -95
-19 -17 -19 -18 0 -56 25 -47 25 -49 0 -49 -14 0 -27 14 -42 45 -12 25 -26 45
-30 45 -4 0 -8 -20 -8 -45 0 -38 -3 -45 -20 -45 -19 0 -20 7 -20 110 l0 110
50 0 c37 0 55 -5 70 -20z m560 -89 l0 -109 -57 -1 c-31 0 -63 5 -70 11 -8 6
-13 33 -13 68 0 69 21 96 70 87 28 -6 30 -5 30 23 0 23 4 30 20 30 19 0 20 -7
20 -109z m162 92 c10 -9 18 -22 18 -30 0 -18 -37 -16 -44 3 -9 23 -50 14 -54
-12 -2 -17 5 -24 29 -33 46 -16 69 -40 69 -72 0 -40 -24 -59 -75 -59 -34 0
-47 5 -59 22 -9 12 -16 26 -16 30 0 15 39 8 48 -8 13 -23 56 -14 60 12 2 17
-5 24 -29 33 -66 23 -89 72 -52 113 20 23 80 24 105 1z m1228 -29 c0 -38 -3
-45 -17 -42 -13 2 -19 15 -21 46 -3 37 -1 42 17 42 18 0 21 -6 21 -46z m540 1
c0 -49 -23 -64 -34 -22 -12 44 -7 67 14 67 17 0 20 -7 20 -45z m-5790 15 c0
-16 7 -20 30 -20 23 0 30 -4 30 -20 0 -16 -7 -20 -30 -20 -29 0 -30 -1 -30
-50 0 -49 1 -50 30 -50 20 0 30 -5 30 -15 0 -10 -10 -15 -34 -15 -60 0 -66 6
-66 71 0 56 -1 59 -25 59 -18 0 -25 5 -25 20 0 15 7 20 25 20 18 0 25 5 25 20
0 13 7 20 20 20 13 0 20 -7 20 -20z m540 0 c0 -16 7 -20 30 -20 23 0 30 -4 30
-20 0 -16 -7 -20 -30 -20 -29 0 -30 -1 -30 -50 0 -49 1 -50 30 -50 20 0 30 -5
30 -15 0 -19 -70 -21 -88 -3 -7 7 -12 36 -12 65 0 50 -1 53 -26 53 -33 0 -30
33 4 38 14 2 22 10 22 23 0 12 7 19 20 19 13 0 20 -7 20 -20z m3610 0 c0 -16
7 -20 35 -20 28 0 35 -4 35 -20 0 -16 -7 -20 -36 -20 l-35 0 3 -47 c3 -46 4
-48 36 -51 52 -5 42 -32 -13 -32 -53 0 -65 16 -65 84 0 39 -3 46 -20 46 -13 0
-20 7 -20 20 0 13 7 20 20 20 13 0 20 7 20 20 0 13 7 20 20 20 13 0 20 -7 20
-20z m-3930 -40 c11 -11 20 -33 20 -50 0 -29 -1 -30 -51 -30 -43 0 -50 -3 -47
-17 3 -15 13 -17 51 -15 26 2 47 1 47 -2 0 -16 -37 -36 -67 -36 -53 0 -73 23
-73 82 0 57 24 88 70 88 17 0 39 -9 50 -20z m115 -7 l18 -26 19 26 c11 15 28
27 39 27 25 0 24 -5 -8 -47 -29 -37 -29 -33 15 -100 13 -22 13 -23 -10 -23
-15 0 -29 10 -39 27 l-17 26 -17 -26 c-11 -17 -26 -27 -42 -27 l-25 0 31 41
30 42 -25 36 c-29 43 -30 51 -5 51 10 0 27 -12 36 -27z m1130 2 c0 -22 -31
-33 -47 -17 -17 17 -1 44 24 40 15 -2 23 -10 23 -23z m568 12 c9 -7 19 -24 23
-39 5 -24 3 -28 -15 -28 -12 0 -21 4 -21 8 0 20 -27 43 -43 36 -14 -5 -17 -19
-17 -70 0 -57 -2 -64 -20 -64 -18 0 -20 7 -20 83 l0 84 49 1 c27 0 56 -5 64
-11z m177 -7 c11 -11 20 -33 20 -50 0 -29 -1 -30 -51 -30 -43 0 -50 -3 -47
-17 3 -15 13 -17 51 -15 26 2 47 1 47 -2 0 -16 -37 -36 -67 -36 -53 0 -73 23
-73 82 0 57 24 88 70 88 17 0 39 -9 50 -20z m180 0 c16 -16 20 -33 20 -84 l0
-64 -65 -1 c-54 -1 -66 2 -75 18 -14 28 -13 38 10 61 12 12 33 20 55 20 37 0
44 10 21 29 -11 9 -20 10 -36 1 -12 -6 -29 -10 -38 -8 -15 3 -14 6 6 26 28 28
75 29 102 2z m358 4 c15 -11 22 -25 22 -50 l0 -34 -51 0 c-43 0 -50 -3 -47
-17 3 -15 13 -18 51 -16 26 2 47 -1 47 -5 0 -19 -27 -32 -66 -32 -53 0 -74 25
-74 87 0 71 62 106 118 67z m194 -1 c25 -23 24 -63 -2 -63 -11 0 -20 6 -20 14
0 7 -7 19 -15 26 -27 23 -45 -5 -45 -71 0 -52 -2 -59 -20 -59 -18 0 -20 7 -20
84 l0 84 52 0 c35 1 59 -5 70 -15z m526 1 c15 -11 22 -25 22 -50 l0 -34 -50 0
c-51 0 -57 -4 -41 -29 6 -9 20 -11 50 -6 41 7 51 -1 29 -23 -17 -17 -93 -15
-108 3 -7 8 -15 34 -17 58 -9 77 55 123 115 81z m184 -1 c14 -13 18 -31 18
-85 l0 -68 -58 0 c-61 0 -82 11 -82 44 0 31 30 56 67 56 23 0 33 5 33 15 0 20
-28 31 -43 16 -13 -13 -47 -15 -47 -2 0 16 43 41 69 41 13 0 33 -7 43 -17z
m731 4 c9 -7 19 -24 23 -39 5 -24 3 -28 -15 -28 -12 0 -21 4 -21 8 0 20 -27
43 -43 36 -14 -5 -17 -19 -17 -70 0 -57 -2 -64 -20 -64 -18 0 -20 7 -20 83 l0
84 49 1 c27 0 56 -5 64 -11z m155 -59 c3 -65 4 -68 27 -68 16 0 25 -6 25 -15
0 -12 -15 -15 -75 -15 -60 0 -75 3 -75 15 0 10 10 15 30 15 29 0 30 1 30 50 0
47 -2 50 -25 50 -19 0 -25 5 -25 21 0 18 5 20 43 17 l42 -3 3 -67z m207 49 c9
-14 15 -45 15 -84 0 -56 -2 -63 -20 -63 -18 0 -20 7 -20 59 0 66 -18 94 -45
71 -10 -8 -15 -31 -15 -71 0 -52 -2 -59 -20 -59 -18 0 -20 7 -20 84 l0 83 55
1 c45 0 58 -3 70 -21z m195 -77 c0 -91 -2 -100 -22 -114 -12 -9 -37 -16 -55
-16 -26 0 -33 4 -33 20 0 16 7 20 35 20 27 0 35 4 35 18 0 15 -6 17 -34 14
-42 -5 -66 24 -66 80 0 55 26 77 89 76 l51 0 0 -98z m620 91 c0 -5 13 -4 29 2
25 9 33 8 50 -8 17 -15 21 -30 21 -87 0 -61 -2 -68 -20 -68 -18 0 -20 7 -20
65 0 52 -4 67 -16 72 -26 10 -44 -25 -44 -84 0 -40 -4 -53 -15 -53 -12 0 -15
16 -15 85 0 69 3 85 15 85 8 0 15 -4 15 -9z m-3870 -26 c0 -12 -14 -15 -70
-15 -56 0 -70 3 -70 15 0 12 14 15 70 15 56 0 70 -3 70 -15z m0 -70 c0 -12
-14 -15 -70 -15 -56 0 -70 3 -70 15 0 12 14 15 70 15 56 0 70 -3 70 -15z
m-956 -37 c-13 -44 -35 -78 -49 -78 -18 0 -18 12 -4 63 8 30 15 37 35 37 22 0
24 -3 18 -22z m726 7 c16 -19 4 -35 -26 -35 -38 0 -31 44 7 49 4 1 12 -6 19
-14z m1628 -12 c3 -19 -1 -23 -22 -23 -28 0 -41 14 -32 36 9 24 50 13 54 -13z
m-1938 -48 c0 -12 -15 -15 -75 -15 -60 0 -75 3 -75 15 0 12 15 15 75 15 60 0
75 -3 75 -15z m710 -196 c0 -6 -13 -24 -30 -39 -27 -26 -30 -34 -30 -92 0 -51
4 -69 20 -86 12 -12 25 -22 30 -22 6 0 10 -9 10 -20 0 -24 -3 -24 -40 -5 -48
25 -60 52 -60 133 0 71 1 75 34 108 33 33 66 45 66 23z m4448 -5 c48 -33 67
-127 41 -202 -9 -27 -61 -72 -83 -72 -16 0 -3 33 20 54 48 41 43 170 -7 197
-21 11 -26 39 -6 39 7 0 23 -7 35 -16z m-5203 -24 c0 -18 -33 -26 -47 -12 -6
6 -7 15 -3 22 10 16 50 8 50 -10z m-1045 -4 c0 -9 -12 -16 -27 -18 -17 -2 -29
-10 -31 -20 -3 -14 3 -18 27 -18 21 0 31 -5 31 -15 0 -10 -10 -15 -30 -15
l-30 0 0 -60 c0 -53 -2 -60 -20 -60 -18 0 -20 7 -20 60 0 57 -1 60 -25 60 -16
0 -25 6 -25 15 0 9 9 15 25 15 20 0 25 5 25 25 0 29 23 44 68 45 21 0 32 -5
32 -14z m708 -2 c22 -15 30 -66 14 -90 -11 -18 -48 -34 -76 -34 -24 0 -26 -4
-26 -40 0 -33 -3 -40 -20 -40 -19 0 -20 7 -20 110 l0 110 53 0 c31 0 61 -6 75
-16z m922 2 c0 -9 -12 -16 -27 -18 -17 -2 -29 -10 -31 -20 -3 -14 3 -18 27
-18 21 0 31 -5 31 -15 0 -10 -10 -15 -30 -15 l-30 0 0 -60 c0 -53 -2 -60 -20
-60 -16 0 -19 8 -22 58 -3 50 -6 57 -25 60 -32 5 -30 32 2 32 19 0 25 5 25 23
0 33 19 47 62 47 26 0 38 -4 38 -14z m280 -15 c0 -39 -9 -61 -26 -61 -10 0
-14 13 -14 45 0 38 3 45 20 45 15 0 20 -7 20 -29z m60 -16 c0 -38 -3 -45 -20
-45 -17 0 -20 7 -20 45 0 38 3 45 20 45 17 0 20 -7 20 -45z m104 -3 c11 -23
23 -42 26 -42 4 0 15 20 24 45 13 32 23 45 37 45 24 0 24 0 -11 -70 -20 -40
-30 -74 -30 -105 0 -38 -3 -45 -20 -45 -17 0 -20 7 -20 39 0 22 -13 69 -30
106 -35 78 -35 77 -12 73 9 -2 26 -22 36 -46z m1896 -61 l0 -108 -55 -2 c-66
-1 -78 13 -73 91 3 45 7 54 30 68 23 12 31 13 48 2 19 -11 20 -10 20 23 0 24
5 35 15 35 12 0 15 -19 15 -109z m648 97 c7 -7 12 -24 12 -38 0 -31 -17 -50
-45 -50 -28 0 -45 19 -45 50 0 31 17 50 45 50 12 0 26 -5 33 -12z m29 -95
c-41 -60 -83 -110 -92 -112 -12 -2 4 28 50 95 88 127 85 124 102 124 9 0 -15
-42 -60 -107z m333 61 c0 -38 -3 -45 -17 -42 -13 2 -19 15 -21 46 -3 37 -1 42
17 42 18 0 21 -6 21 -46z m60 1 c0 -33 -4 -45 -15 -45 -11 0 -15 12 -15 45 0
33 4 45 15 45 11 0 15 -12 15 -45z m-4740 15 c0 -16 7 -20 30 -20 23 0 30 -4
30 -20 0 -16 -7 -20 -30 -20 -29 0 -30 -1 -30 -50 0 -49 1 -50 30 -50 20 0 30
-5 30 -15 0 -19 -70 -21 -88 -3 -7 7 -12 36 -12 65 0 50 -1 53 -26 53 -33 0
-30 33 4 38 14 2 22 10 22 23 0 12 7 19 20 19 13 0 20 -7 20 -20z m1080 0 c0
-16 7 -20 35 -20 28 0 35 -4 35 -20 0 -16 -7 -20 -36 -20 l-35 0 3 -47 c3 -46
4 -48 36 -51 52 -5 42 -32 -13 -32 -53 0 -65 16 -65 84 0 39 -3 46 -20 46 -13
0 -20 7 -20 20 0 13 7 20 20 20 13 0 20 7 20 20 0 13 7 20 20 20 13 0 20 -7
20 -20z m1810 0 c0 -16 7 -20 30 -20 23 0 30 -4 30 -20 0 -16 -7 -20 -30 -20
-29 0 -30 -1 -30 -50 0 -49 1 -50 30 -50 20 0 30 -5 30 -15 0 -11 -11 -15 -40
-15 -47 0 -60 18 -60 84 0 39 -3 46 -20 46 -13 0 -20 7 -20 20 0 13 7 20 20
20 13 0 20 7 20 20 0 13 7 20 20 20 13 0 20 -7 20 -20z m2350 1 c0 -15 8 -21
32 -23 22 -2 34 -9 36 -20 3 -15 -4 -18 -33 -18 l-36 0 3 -47 c3 -44 5 -48 31
-51 43 -5 34 -32 -11 -32 -51 0 -62 14 -62 77 0 46 -3 53 -20 53 -13 0 -20 7
-20 20 0 13 7 20 20 20 13 0 20 7 20 20 0 13 7 20 20 20 13 0 20 -7 20 -19z
m540 -1 c0 -16 7 -20 35 -20 28 0 35 -4 35 -20 0 -16 -7 -20 -36 -20 l-35 0 3
-47 c3 -46 4 -48 36 -51 52 -5 42 -32 -13 -32 -53 0 -65 16 -65 84 0 39 -3 46
-20 46 -13 0 -20 7 -20 20 0 13 7 20 20 20 13 0 20 7 20 20 0 13 7 20 20 20
13 0 20 -7 20 -20z m-5899 -47 c5 -13 9 -51 9 -84 0 -52 -2 -59 -20 -59 -18 0
-20 7 -20 70 0 40 -4 70 -10 70 -6 0 -10 -30 -10 -70 0 -63 -2 -70 -20 -70
-18 0 -20 7 -20 70 0 40 -4 70 -10 70 -6 0 -10 -30 -10 -70 0 -63 -2 -70 -20
-70 -18 0 -20 7 -20 78 0 43 2 81 5 84 3 3 35 5 71 5 60 0 66 -2 75 -24z m712
9 c24 -22 23 -62 -3 -62 -11 0 -20 6 -20 14 0 7 -7 19 -15 26 -27 23 -45 -5
-45 -71 0 -52 -2 -59 -20 -59 -18 0 -20 7 -20 84 l0 84 53 0 c33 0 58 -6 70
-16z m147 -52 c0 -68 1 -70 25 -70 16 0 25 -6 25 -15 0 -12 -15 -15 -75 -15
-60 0 -75 3 -75 15 0 10 10 15 30 15 29 0 30 1 30 50 0 47 -2 50 -25 50 -14 0
-25 6 -25 13 0 21 11 27 52 27 l38 0 0 -70z m205 54 c10 -11 15 -36 15 -85 0
-62 -2 -69 -20 -69 -18 0 -20 7 -20 64 0 63 -8 79 -37 69 -9 -3 -13 -26 -13
-69 0 -57 -2 -64 -20 -64 -18 0 -20 7 -20 83 l0 84 50 1 c32 0 55 -4 65 -14z
m1079 -5 c21 -16 26 -29 26 -63 0 -59 -22 -86 -70 -86 -48 0 -70 27 -70 85 0
45 6 57 35 73 29 17 49 15 79 -9z m108 -46 c3 -65 4 -68 28 -68 24 0 25 4 30
65 4 49 9 65 20 65 23 0 27 -121 4 -146 -19 -21 -64 -25 -95 -9 -16 9 -19 22
-19 85 0 59 3 75 15 75 11 0 15 -16 17 -67z m438 47 c11 -11 20 -33 20 -50 0
-29 -1 -30 -51 -30 -43 0 -50 -3 -47 -17 3 -15 13 -18 51 -16 52 3 54 2 31
-21 -20 -20 -88 -21 -104 -1 -7 8 -15 35 -17 59 -5 38 -2 48 20 70 31 31 70
33 97 6z m100 11 c0 -5 13 -4 29 2 25 9 33 8 50 -8 17 -15 21 -30 21 -87 0
-61 -2 -68 -20 -68 -18 0 -20 7 -20 65 0 52 -4 67 -16 72 -26 10 -44 -25 -44
-84 0 -40 -4 -53 -15 -53 -12 0 -15 16 -15 85 0 69 3 85 15 85 8 0 15 -4 15
-9z m438 -7 c15 -11 22 -25 22 -50 l0 -34 -51 0 c-43 0 -50 -3 -47 -17 3 -15
13 -18 51 -16 49 3 61 -9 28 -27 -29 -15 -77 -12 -95 6 -11 10 -16 34 -16 69
0 44 4 57 22 69 12 9 32 16 43 16 11 0 31 -7 43 -16z m112 4 c0 -9 3 -9 12 0
29 29 88 -1 88 -45 0 -31 -24 -30 -38 2 -6 14 -18 25 -25 25 -26 0 -37 -25
-37 -82 0 -45 -3 -58 -15 -58 -12 0 -15 16 -15 85 0 69 3 85 15 85 8 0 15 -5
15 -12z m256 -13 c16 -16 24 -34 22 -48 -3 -19 -10 -22 -50 -25 -41 -3 -48 -6
-48 -24 0 -19 4 -20 45 -15 25 4 45 3 45 -1 0 -33 -80 -44 -112 -15 -26 23
-25 106 2 133 27 27 66 25 96 -5z m513 16 c19 -12 6 -41 -18 -41 -23 0 -35 15
-27 35 6 17 24 19 45 6z m504 -61 l20 -65 18 59 c19 63 31 82 47 72 6 -4 0
-37 -16 -86 -24 -74 -29 -81 -51 -78 -20 3 -28 14 -48 72 -27 83 -29 99 -6 94
11 -2 24 -25 36 -68z m965 54 c15 -11 22 -25 22 -50 l0 -34 -50 0 c-51 0 -57
-4 -41 -29 6 -9 20 -11 50 -6 41 7 51 -1 29 -23 -17 -17 -93 -15 -108 3 -7 8
-15 34 -17 58 -9 77 55 123 115 81z m121 -10 l20 -25 17 25 c9 14 25 26 35 26
25 0 24 -8 -5 -50 l-24 -35 30 -42 29 -43 -24 0 c-16 0 -31 10 -42 27 l-17 26
-17 -26 c-10 -17 -24 -27 -39 -27 -25 0 -24 3 11 54 21 30 22 28 -21 94 -13
20 -13 22 6 22 11 0 30 -12 41 -26z m-1175 -60 c20 -19 21 -58 2 -73 -8 -7
-27 -11 -43 -9 -24 2 -28 8 -31 36 -5 55 37 82 72 46z m-4206 -61 c3 -19 -1
-23 -22 -23 -28 0 -41 14 -32 36 9 24 50 13 54 -13z m3792 12 c15 -18 5 -35
-20 -35 -10 0 -22 5 -25 10 -7 11 12 40 25 40 4 0 13 -7 20 -15z m910 8 c0
-27 -37 -93 -52 -93 -21 0 -21 -1 -7 56 10 37 15 44 35 44 13 0 24 -3 24 -7z
m-1043 -679 c-3 -3 -12 -4 -19 -1 -8 3 -5 6 6 6 11 1 17 -2 13 -5z"/>
<path d="M4549 3089 c-13 -25 2 -69 24 -69 19 0 37 21 37 45 0 43 -41 60 -61
24z"/>
<path d="M5200 3096 c-15 -19 -9 -56 12 -69 34 -22 66 41 36 71 -16 16 -33 15
-48 -2z"/>
<path d="M5917 3104 c-15 -15 -6 -24 24 -24 20 0 29 4 27 13 -5 14 -40 21 -51
11z"/>
<path d="M1252 2348 c-14 -14 -16 -67 -3 -86 5 -8 17 -12 27 -10 33 6 28 108
-5 108 -4 0 -12 -5 -19 -12z"/>
<path d="M2521 2346 c-19 -23 -10 -90 13 -94 10 -2 22 2 27 10 13 19 11 72 -3
86 -16 16 -23 15 -37 -2z"/>
<path d="M4140 2375 c0 -30 3 -35 24 -35 16 0 27 7 31 20 8 25 -10 50 -36 50
-15 0 -19 -7 -19 -35z"/>
<path d="M4691 2351 c-8 -5 -11 -25 -9 -52 2 -37 7 -45 25 -47 17 -3 24 3 29
22 12 51 -14 96 -45 77z"/>
<path d="M6315 2344 c-30 -30 -14 -99 21 -92 15 2 20 13 22 49 3 52 -15 70
-43 43z"/>
<path d="M887 2353 c-17 -16 -5 -33 23 -33 19 0 30 5 30 14 0 20 -39 34 -53
19z"/>
<path d="M1060 2271 c0 -23 19 -32 43 -19 28 15 21 38 -13 38 -23 0 -30 -5
-30 -19z"/>
<path d="M1432 2348 c-20 -20 -14 -28 19 -28 24 0 30 4 27 17 -4 22 -29 28
-46 11z"/>
<path d="M3240 2345 c-6 -7 -10 -31 -8 -52 3 -33 6 -38 28 -38 22 0 25 5 28
42 2 33 -1 44 -16 52 -15 8 -23 7 -32 -4z"/>
<path d="M3782 2348 c-20 -20 -14 -28 19 -28 24 0 30 4 27 17 -4 22 -29 28
-46 11z"/>
<path d="M4322 2348 c-20 -20 -14 -28 23 -28 33 0 35 2 25 20 -12 23 -30 26
-48 8z"/>
<path d="M4497 2283 c-12 -11 -8 -22 12 -33 15 -7 23 -6 35 6 9 8 16 20 16 25
0 10 -53 12 -63 2z"/>
<path d="M4867 2353 c-17 -16 -5 -33 23 -33 32 0 37 9 18 28 -13 13 -31 16
-41 5z"/>
<path d="M5410 2345 c-6 -7 -10 -31 -8 -52 3 -33 6 -38 28 -38 22 0 25 5 28
42 2 33 -1 44 -16 52 -15 8 -23 7 -32 -4z"/>
<path d="M1427 1944 c-4 -4 -7 -20 -7 -36 0 -25 4 -28 30 -28 34 0 49 23 33
49 -11 17 -44 26 -56 15z"/>
<path d="M3417 1893 c-18 -18 -5 -33 28 -33 33 0 35 2 25 20 -10 19 -40 27
-53 13z"/>
<path d="M3950 1811 c0 -21 22 -33 45 -25 8 4 15 15 15 25 0 14 -7 19 -30 19
-23 0 -30 -5 -30 -19z"/>
<path d="M5232 1891 c-8 -5 -12 -23 -10 -47 3 -34 6 -39 28 -39 21 0 26 5 28
33 2 18 -2 40 -9 48 -13 16 -19 17 -37 5z"/>
<path d="M3241 1446 c-19 -23 -10 -90 13 -94 10 -2 22 2 27 10 13 19 11 72 -3
86 -16 16 -23 15 -37 -2z"/>
<path d="M3960 1475 c0 -30 3 -35 24 -35 16 0 27 7 31 20 8 25 -10 50 -36 50
-15 0 -19 -7 -19 -35z"/>
<path d="M4511 1451 c-8 -5 -11 -25 -9 -52 2 -37 7 -45 25 -47 17 -3 24 3 29
22 12 51 -14 96 -45 77z"/>
<path d="M887 1453 c-17 -16 -5 -33 23 -33 19 0 30 5 30 14 0 20 -39 34 -53
19z"/>
<path d="M2877 1453 c-17 -16 -5 -33 23 -33 19 0 30 5 30 14 0 20 -39 34 -53
19z"/>
<path d="M3046 1375 c-7 -20 24 -36 46 -24 10 5 18 16 18 24 0 20 -56 20 -64
0z"/>
<path d="M3422 1448 c-20 -20 -14 -28 19 -28 24 0 30 4 27 17 -4 22 -29 28
-46 11z"/>
<path d="M4142 1448 c-20 -20 -14 -28 23 -28 33 0 35 2 25 20 -12 23 -30 26
-48 8z"/>
<path d="M4313 1374 c-3 -9 0 -20 8 -24 17 -11 49 6 49 25 0 21 -49 19 -57 -1z"/>
<path d="M5596 1445 c-32 -32 -9 -96 29 -81 19 7 20 69 1 85 -11 9 -18 8 -30
-4z"/>
<path d="M1427 1044 c-4 -4 -7 -20 -7 -36 0 -25 4 -28 30 -28 34 0 49 23 33
49 -11 17 -44 26 -56 15z"/>
<path d="M4687 993 c-4 -3 -7 -28 -7 -55 0 -48 1 -49 28 -46 23 3 27 8 30 41
4 50 -26 86 -51 60z"/>
<path d="M5374 1046 c-7 -20 2 -46 16 -46 13 0 13 47 0 55 -6 3 -13 -1 -16 -9z"/>
<path d="M3062 991 c-9 -5 -12 -24 -10 -52 3 -39 6 -44 28 -44 22 0 25 5 28
44 3 39 -7 61 -28 61 -3 0 -11 -4 -18 -9z"/>
<path d="M3597 993 c-18 -18 -5 -33 28 -33 33 0 35 2 25 20 -10 19 -40 27 -53
13z"/>
<path d="M4142 988 c-20 -20 -14 -28 23 -28 19 0 35 4 35 8 0 12 -22 32 -35
32 -6 0 -16 -5 -23 -12z"/>
<path d="M4507 994 c-17 -17 -5 -34 24 -34 24 0 30 4 27 18 -3 17 -38 29 -51
16z"/>
<path d="M6492 988 c-20 -20 -14 -28 23 -28 33 0 35 2 25 20 -12 23 -30 26
-48 8z"/>
<path d="M5460 904 c0 -31 23 -28 28 4 2 15 -2 22 -12 22 -11 0 -16 -9 -16
-26z"/>
<path d="M5048 213 c7 -3 16 -2 19 1 4 3 -2 6 -13 5 -11 0 -14 -3 -6 -6z"/>
</g>
</svg>
